<svg width="180" height="164" fill="none" xmlns="http://www.w3.org/2000/svg">
  <g clip-path="url(#a)">
    <path d="M68.518 112.017c7.64-2.443 10.422-14.051 6.216-25.927-4.207-11.876-13.81-19.522-21.449-17.079-7.64 2.444-10.422 14.052-6.215 25.927 4.206 11.876 13.81 19.523 21.448 17.079Z" fill="#fff"/>
    <path d="M53.626 69.974c6.95-2.223 16.151 5.303 20.096 16.44 3.945 11.137 1.405 22.418-5.545 24.641-6.95 2.223-16.15-5.303-20.096-16.44-3.944-11.137-1.398-22.42 5.545-24.641Zm-.682-1.926c-8.198 2.622-11.282 14.807-6.887 27.214 4.395 12.408 14.604 20.341 22.802 17.719 8.199-2.623 11.282-14.807 6.887-27.215C71.351 73.36 61.15 65.424 52.944 68.048Z" fill="#000"/>
    <path d="M115.12 97.136c7.639-2.443 10.422-14.051 6.215-25.927-4.206-11.876-13.809-19.522-21.448-17.079-7.64 2.443-10.422 14.051-6.216 25.927 4.207 11.876 13.81 19.523 21.449 17.08Z" fill="#fff"/>
    <path d="M100.228 55.093c6.95-2.223 16.151 5.303 20.096 16.44 3.944 11.137 1.405 22.418-5.545 24.64-6.95 2.224-16.151-5.302-20.096-16.44-3.945-11.136-1.398-22.42 5.545-24.64Zm-.682-1.926c-8.199 2.622-11.282 14.806-6.887 27.214 4.395 12.408 14.604 20.341 22.802 17.718 8.198-2.622 11.282-14.806 6.887-27.214-4.395-12.407-14.597-20.342-22.802-17.718ZM64.654 101.106c4.285-1.37 5.876-7.798 3.553-14.357-2.323-6.558-7.68-10.763-11.965-9.393-4.286 1.371-5.877 7.799-3.554 14.357 2.323 6.558 7.68 10.764 11.966 9.393Z" fill="#000"/>
    <path d="M56.355 77.677c4.096-1.31 9.257 2.806 11.515 9.18 2.258 6.374.766 12.618-3.33 13.928-4.096 1.31-9.257-2.806-11.515-9.18-2.257-6.374-.759-12.62 3.33-13.928Zm-.227-.642c-4.474 1.43-6.162 8.052-3.777 14.786 2.385 6.733 7.943 11.037 12.416 9.606 4.474-1.431 6.163-8.052 3.778-14.786-2.385-6.733-7.944-11.037-12.417-9.606ZM111.256 86.225c4.285-1.371 5.876-7.799 3.553-14.357-2.323-6.558-7.68-10.764-11.965-9.393-4.286 1.37-5.877 7.798-3.554 14.357 2.323 6.558 7.68 10.763 11.966 9.393Z" fill="#000"/>
    <path d="M102.957 62.795c4.096-1.31 9.257 2.806 11.515 9.18 2.258 6.374.766 12.618-3.33 13.928-4.096 1.31-9.257-2.806-11.515-9.18-2.257-6.374-.759-12.62 3.33-13.928Zm-.227-.642c-4.474 1.431-6.162 8.053-3.777 14.786 2.385 6.734 7.943 11.037 12.417 9.606 4.473-1.43 6.162-8.052 3.777-14.785-2.385-6.734-7.944-11.038-12.417-9.607Z" fill="#000"/>
    <path d="M57.356 90.935c2.579-.825 3.753-4.08 2.623-7.271s-4.137-5.109-6.716-4.284c-2.58.825-3.754 4.08-2.624 7.271 1.13 3.19 4.137 5.109 6.717 4.284ZM103.504 74.77c2.579-.825 3.753-4.08 2.623-7.271s-4.137-5.109-6.716-4.284c-2.58.825-3.754 4.08-2.624 7.271 1.13 3.19 4.137 5.109 6.717 4.284Z" fill="#fff"/>
    <path d="M40.803 61.326c1.131-3.907 3.148-7.925 7.266-9.623 3.836-1.58 8.141-.589 11.833.9 2.528 1.023 4.438-2.618 1.895-3.643-4.916-1.992-10.552-3.093-15.616-.927-5.332 2.28-8.083 7.343-9.566 12.464-.732 2.533 3.455 3.34 4.188.829ZM89.961 41.597c10.72 1.146 21.755-.252 31.73-4.17 2.528-.99 1.177-4.864-1.37-3.862-9.258 3.631-19.519 5.112-29.497 4.043-2.721-.297-3.6 3.69-.863 3.989Z" fill="#000"/>
    <path d="M105.41 137.729c-34.878 11.137-68.84 4.075-75.86-15.775M155.849 81.623c7.02 19.851-15.562 44.969-50.439 56.106M22.69 125.931l13.27-9.238M150.105 82.386l11.262-2.167" stroke="#000" stroke-width="3" stroke-miterlimit="10"/>
  </g>
  <defs>
    <clipPath id="a">
      <path fill="#fff" transform="matrix(.94885 -.31572 .32138 .94695 0 47.31)" d="M0 0h147.086v122.812H0z"/>
    </clipPath>
  </defs>
</svg>
