<svg width="234" height="221" fill="none" xmlns="http://www.w3.org/2000/svg">
  <g clip-path="url(#a)">
    <path d="M85.064 112.191c8.08 5.394 22.155-.414 31.436-12.971 9.281-12.557 10.255-27.108 2.174-32.502-8.08-5.393-22.155.415-31.436 12.972-9.281 12.557-10.254 27.108-2.174 32.501Z" fill="#fff"/>
    <path d="M117.922 67.737c7.351 4.906 6.211 18.993-2.492 30.769-8.704 11.775-22.262 17.574-29.614 12.668-7.35-4.907-6.211-18.994 2.492-30.77 8.704-11.775 22.269-17.57 29.614-12.667Zm1.504-2.037c-8.671-5.787-23.562.156-33.259 13.275-9.697 13.12-10.527 28.447-1.855 34.235 8.671 5.787 23.562-.156 33.259-13.275 9.697-13.12 10.534-28.442 1.855-34.235Z" fill="#000"/>
    <path d="M134.348 145.062c8.08 5.393 22.154-.415 31.435-12.972 9.282-12.557 10.255-27.108 2.174-32.501-8.08-5.393-22.155.414-31.436 12.971-9.281 12.557-10.254 27.109-2.173 32.502Z" fill="#fff"/>
    <path d="M167.205 100.607c7.351 4.906 6.211 18.994-2.492 30.769-8.704 11.776-22.262 17.574-29.613 12.668-7.352-4.906-6.212-18.994 2.492-30.769 8.703-11.776 22.269-17.57 29.613-12.668Zm1.505-2.036c-8.672-5.788-23.563.155-33.26 13.275-9.696 13.119-10.527 28.446-1.855 34.234 8.672 5.788 23.562-.155 33.259-13.275 9.697-13.119 10.534-28.442 1.856-34.234ZM101.462 95.772c4.533 3.026 12.363-.143 17.488-7.078 5.125-6.934 5.606-15.008 1.073-18.034-4.533-3.025-12.363.144-17.488 7.078-5.126 6.935-5.606 15.009-1.073 18.034Z" fill="#000"/>
    <path d="M119.772 71c4.332 2.891 3.803 10.717-1.178 17.456-4.982 6.74-12.549 9.868-16.881 6.977-4.332-2.891-3.803-10.717 1.179-17.457 4.981-6.739 12.555-9.863 16.88-6.976Zm.502-.68c-4.732-3.157-12.834.06-18.096 7.18-5.262 7.12-5.699 15.454-.967 18.612 4.732 3.158 12.834-.06 18.096-7.18 5.262-7.12 5.699-15.453.967-18.611ZM151.459 129.118c4.533 3.026 12.363-.143 17.488-7.078 5.126-6.934 5.606-15.008 1.073-18.034-4.533-3.025-12.363.144-17.488 7.078-5.126 6.935-5.606 15.009-1.073 18.034Z" fill="#000"/>
    <path d="M169.769 104.346c4.332 2.891 3.803 10.717-1.178 17.456-4.982 6.74-12.549 9.869-16.881 6.977-4.332-2.891-3.803-10.717 1.179-17.456 4.981-6.74 12.555-9.864 16.88-6.977Zm.502-.679c-4.732-3.158-12.834.06-18.096 7.179-5.262 7.12-5.698 15.454-.966 18.612 4.731 3.158 12.833-.06 18.095-7.179 5.262-7.12 5.699-15.454.967-18.612Z" fill="#000"/>
    <path d="M99.032 92.63c2.121 1.415 5.413.436 7.352-2.188s1.792-5.899-.329-7.314c-2.12-1.416-5.412-.436-7.351 2.188-1.94 2.624-1.793 5.898.328 7.314ZM149.243 127.131c2.12 1.416 5.412.436 7.351-2.188 1.94-2.624 1.793-5.898-.328-7.314-2.121-1.415-5.412-.436-7.352 2.188-1.939 2.624-1.792 5.899.329 7.314Z" fill="#fff"/>
    <path d="M111.48 47.431c9.996.34 18.885 4.874 24.772 12.543 1.989 2.588 6.028-.595 4.053-3.173-6.66-8.672-17.081-13.946-28.377-14.33-3.361-.112-3.834 4.852-.448 4.96ZM169.572 81.11c9.42 3.225 16.378 10.167 19.53 19.155 1.069 3.039 5.824.935 4.766-2.076-3.581-10.21-11.899-18.14-22.528-21.776-3.168-1.08-4.95 3.608-1.768 4.698Z" fill="#000"/>
    <path d="M85.836 158.795c-36.884-24.6-54.214-61.557-38.709-82.55M180.692 165.328c-15.506 20.992-57.972 18.067-94.856-6.533M38.017 72.702 57.24 78.43M175.729 160.498l10.426 8.98" stroke="#000" stroke-width="3" stroke-miterlimit="10"/>
    <path d="M103.784 51.76c-.725 1.096-2.364 3.893-2.373 7.788a14.09 14.09 0 0 0 1.89 7.055M106.634 54.136c-.33.823-1.076 2.93-1.08 5.865-.004 2.56.558 4.455.854 5.31M111.07 57.47a7.708 7.708 0 0 0-.233 7.706M188.502 107.25a15.488 15.488 0 0 1-6.901 4.768 16.194 16.194 0 0 1-7.624.71M185.181 105.511c-.702.575-2.533 1.958-5.436 2.959-2.533.874-4.599 1.015-5.546 1.042M180.375 102.68c-.439.508-1.607 1.714-3.61 2.405-1.744.6-3.245.51-3.937.423" stroke="#000" stroke-width="2" stroke-miterlimit="10"/>
    <path d="M86.982 161.506c3.198-2.433 2.37-8.463-1.847-13.468-4.217-5.004-10.229-7.089-13.426-4.655-3.198 2.433-2.371 8.463 1.847 13.467 4.217 5.005 10.229 7.09 13.426 4.656Z" fill="#000" stroke="#000" stroke-width="3" stroke-miterlimit="10"/>
    <path d="M83.505 164.838c6.508 4.341 12.346 7.1 13.038 6.163.692-.937-4.023-5.216-10.532-9.557s-12.346-7.1-13.038-6.163c-.692.937 4.023 5.216 10.532 9.557Z" fill="#000" stroke="#000" stroke-width="3" stroke-miterlimit="10"/>
    <path d="M94.134 170.755c6.143 2.652 12.496 1.929 14.19-1.615 1.695-3.544-1.911-8.567-8.054-11.218-6.143-2.652-12.496-1.929-14.19 1.615-1.695 3.544 1.912 8.567 8.054 11.218Z" fill="#000" stroke="#000" stroke-width="3" stroke-miterlimit="10"/>
  </g>
  <defs>
    <clipPath id="a">
      <path fill="#fff" transform="matrix(.82117 .57069 -.5783 .81583 80.618 0)" d="M0 0h186.726v139.407H0z"/>
    </clipPath>
  </defs>
</svg>
