<svg width="229" height="207" fill="none" xmlns="http://www.w3.org/2000/svg">
  <g clip-path="url(#a)">
    <path d="M79.907 113.296c8.195 4.5 21.118-2.178 28.865-14.916s7.384-26.712-.811-31.213c-8.195-4.5-21.118 2.177-28.865 14.915-7.747 12.739-7.384 26.713.81 31.214Z" fill="#fff"/>
    <path d="M107.333 68.2c7.455 4.094 7.618 17.64.353 29.584-7.265 11.946-19.696 18.574-27.152 14.479-7.455-4.094-7.618-17.639-.353-29.584 7.265-11.945 19.704-18.57 27.152-14.48Zm1.256-2.066c-8.794-4.83-22.485 2.044-30.58 15.352-8.093 13.309-7.525 28.013 1.27 32.843 8.794 4.829 22.485-2.044 30.579-15.352 8.094-13.309 7.533-28.009-1.269-32.843Z" fill="#000"/>
    <path d="M129.897 140.723c8.195 4.5 21.119-2.178 28.866-14.916s7.384-26.712-.811-31.213c-8.195-4.5-21.118 2.178-28.865 14.916-7.748 12.738-7.384 26.712.81 31.213Z" fill="#fff"/>
    <path d="M157.324 95.627c7.455 4.094 7.618 17.639.353 29.584-7.265 11.946-19.696 18.574-27.152 14.479-7.455-4.094-7.618-17.639-.353-29.584 7.265-11.945 19.704-18.57 27.152-14.48Zm1.256-2.066c-8.795-4.83-22.486 2.044-30.58 15.352-8.094 13.309-7.525 28.013 1.269 32.843 8.794 4.829 22.486-2.044 30.58-15.352 8.094-13.309 7.533-28.009-1.269-32.843ZM87.024 101.591c4.598 2.525 11.793-1.131 16.071-8.165 4.278-7.035 4.019-14.784-.578-17.309-4.597-2.524-11.792 1.131-16.07 8.166-4.278 7.034-4.02 14.784.577 17.308Z" fill="#000"/>
    <path d="M102.307 76.462c4.394 2.413 4.583 9.929.425 16.765-4.158 6.837-11.105 10.433-15.499 8.021-4.393-2.413-4.583-9.93-.425-16.766 4.158-6.837 11.113-10.43 15.499-8.02Zm.419-.689c-4.799-2.635-12.25 1.09-16.642 8.312-4.392 7.222-4.069 15.216.73 17.851 4.8 2.636 12.25-1.089 16.642-8.311 4.393-7.222 4.069-15.216-.73-17.852ZM137.016 129.018c4.597 2.525 11.792-1.131 16.07-8.166 4.278-7.034 4.02-14.783-.578-17.308-4.597-2.525-11.792 1.131-16.07 8.166-4.278 7.034-4.02 14.783.578 17.308Z" fill="#000"/>
    <path d="M152.298 103.889c4.394 2.412 4.583 9.928.426 16.765-4.158 6.837-11.106 10.433-15.5 8.02-4.393-2.413-4.583-9.928-.425-16.765s11.113-10.429 15.499-8.02Zm.419-.689c-4.799-2.635-12.249 1.089-16.641 8.311-4.393 7.223-4.069 15.216.73 17.852 4.799 2.635 12.249-1.089 16.641-8.311 4.393-7.223 4.069-15.216-.73-17.852Z" fill="#000"/>
    <path d="M96.886 91.854c2.767 1.52 6.697-.023 8.778-3.446 2.082-3.422 1.526-7.428-1.24-8.948-2.767-1.52-6.697.024-8.779 3.446-2.081 3.422-1.526 7.428 1.241 8.948ZM146.877 119.281c2.766 1.519 6.697-.024 8.778-3.446 2.081-3.422 1.526-7.428-1.241-8.948-2.766-1.519-6.697.023-8.778 3.446-2.081 3.422-1.526 7.428 1.241 8.948Z" fill="#fff"/>
    <path d="M101.002 49.214c9.227.621 17.603 5.243 22.785 12.524 1.803 2.53 6.185.174 4.371-2.37-6.254-8.792-16.023-14.189-27.173-14.936-3.218-.221-3.194 4.565.017 4.782ZM153.167 77.834c9.226.62 17.602 5.243 22.785 12.523 1.803 2.53 6.184.175 4.371-2.37-6.254-8.791-16.023-14.188-27.173-14.936-3.219-.22-3.195 4.566.017 4.782Z" fill="#000"/>
    <path d="M86.665 157.845c-37.414-20.527-57.255-54.426-44.317-75.72" stroke="#000" stroke-width="3" stroke-miterlimit="10"/>
    <path d="M177.831 156.455c-12.938 21.295-53.753 21.916-91.166 1.39M33.332 79.474 52.2 83.399M172.662 152.243l10.756 7.737" stroke="#000" stroke-width="3" stroke-miterlimit="10"/>
  </g>
  <defs>
    <clipPath id="a">
      <path fill="#fff" transform="matrix(.86815 .4963 -.50371 .86387 67.708 .062)" d="M0 0h185.152v132.458H0z"/>
    </clipPath>
  </defs>
</svg>
